<?xml version="1.0" encoding="UTF-8"?>
<svg id="Layer_2" data-name="Layer 2" xmlns="http://www.w3.org/2000/svg" viewBox="0 0 148.3 32.05">
  <defs>
    <style>
      .cls-1 {
        font-family: MyriadPro-Semibold, 'Myriad Pro';
        font-size: 8px;
        font-weight: 600;
      }

      .cls-1, .cls-2 {
        fill: #fff;
      }

      .cls-3 {
        fill: #b2395a;
      }

      .cls-3, .cls-4, .cls-2, .cls-5, .cls-6, .cls-7 {
        stroke-width: 0px;
      }

      .cls-4 {
        fill: #fcfdff;
      }

      .cls-5 {
        fill: #b83d5d;
      }

      .cls-6 {
        fill: #f7d42a;
      }

      .cls-8 {
        letter-spacing: 0em;
      }

      .cls-9 {
        letter-spacing: -.04em;
      }

      .cls-10 {
        letter-spacing: -.02em;
      }

      .cls-7 {
        fill: #025d44;
      }

      .cls-11 {
        letter-spacing: 0em;
      }

      .cls-12 {
        letter-spacing: 0em;
      }
    </style>
  </defs>
  <g id="Layer_6" data-name="Layer 6">
    <g>
      <path class="cls-2" d="m147.74,19.17v-.4c-.67,0-1.34-.27-2.01-.54-.67-.27-1.34-.8-2.28-1.74l-5.76-4.96,2.41-2.15c1.34-1.21,2.15-1.88,2.28-2.01.54-.54,1.07-.94,1.47-1.07.4-.27.67-.4.94-.4.27-.13.67-.13.94-.13v-.4h-5.63v.4h.4c.27,0,.54,0,.8.13.13.13.13.27.13.4,0,.27,0,.4-.27.67-.4.67-1.88,1.88-4.02,3.75-.94.67-1.47,1.21-1.61,1.34v-4.29c0-.67,0-1.07.13-1.34.13-.27.27-.4.54-.54.27-.13.67-.13.94-.13h.54v-.4h-6.57v.4h.54c.4,0,.8,0,1.07.27.27,0,.4.27.54.4,0,.13.13.67.13,1.34v8.98c0,.8-.13,1.34-.27,1.47-.27.4-.8.54-1.47.54h-.54v.4h6.57v-.4h-.54c-.27,0-.67-.13-.94-.27-.27-.13-.4-.27-.54-.4-.13-.27-.13-.67-.13-1.34v-4.56l5.36,4.69c.4.4.54.67.67.8.13.13.13.27.13.4s-.13.27-.27.4c-.27.13-.54.27-.94.27v.4h7.24Zm-17.7-13.41h.54v-.4h-5.36v.4h.54c.67,0,1.07.13,1.34.4.27.13.27.67.27,1.47v7.91l-9.38-10.19h-4.16v.4h.94c.54.13.8.27,1.07.4.27.27.54.54,1.07.94v9.52c0,.67-.13,1.34-.27,1.61-.27.4-.8.54-1.47.54h-.54v.4h5.36v-.4h-.54c-.54,0-.94-.13-1.34-.4-.13-.27-.27-.94-.27-1.74v-8.45l10.19,10.99h.4V7.64c0-.67,0-1.21.27-1.34.27-.4.67-.54,1.34-.54m-16.22,13c-.54,0-1.07-.13-1.47-.4-.27-.27-.67-.94-1.07-1.88l-5.36-11.13h-.4l-5.5,11.13c-.4.94-.8,1.61-1.21,1.88-.27.13-.67.27-1.34.4v.4h4.96v-.4c-.8,0-1.34-.13-1.47-.27-.27-.27-.4-.4-.4-.54,0-.27.13-.67.4-1.21l1.07-2.15h5.9l.94,1.88c.4.67.54,1.21.54,1.47,0,.13-.13.4-.4.54-.13.13-.54.27-1.21.27v.4h6.03v-.4Zm-6.17-4.83h-5.23l2.68-5.5,2.55,5.5Zm-12.74-.8c-.54-.54-1.34-.8-2.28-1.07.8-.27,1.61-.67,2.01-1.21.54-.54.67-1.21.67-1.88,0-.8-.27-1.47-.8-2.15-.67-.54-1.47-.94-2.68-1.21-.67-.13-1.74-.27-2.95-.27h-6.7v.4h.67c.54,0,.94.13,1.34.4.13.27.27.8.27,1.61v8.98c0,.67-.13,1.21-.27,1.47-.27.4-.8.54-1.34.54h-.67v.4h7.37c1.61,0,2.95-.13,3.75-.54.94-.27,1.61-.67,2.01-1.34.54-.54.8-1.21.8-1.88,0-.94-.4-1.74-1.21-2.28m-2.41-2.68c-.27.4-.67.67-1.21.94-.54.13-1.47.27-2.55.27h-1.21c-.27,0-.67-.13-.94-.13v-5.23c.67-.13,1.34-.27,2.01-.27,1.47,0,2.55.27,3.22.8.8.67,1.21,1.34,1.21,2.15,0,.54-.13.94-.54,1.47m.94,5.09c0,.8-.4,1.47-1.07,2.01-.67.54-1.74.8-3.08.8-.94,0-1.74,0-2.68-.27v-5.63h.8c.4-.13.8-.13,1.21-.13,1.07,0,2.01.27,2.82.54.67.27,1.21.67,1.47,1.07.4.54.54,1.07.54,1.61m-20.51,3.62h6.7v-.67c-.13,0-.4,0-.8-.13-.27,0-.54,0-.67-.13-.27,0-.4-.13-.54-.27-.13-.13-.13-.4-.13-.54V7.11c0-.27,0-.4.13-.54,0-.13.27-.27.54-.4.13,0,.4-.13.8-.13h.67v-.67h-6.7v.67h.8c.27.13.54.13.8.27.27.13.4.13.54.27.13.13.13.8.13.94v10.05c0,.13-.13.4-.13.54-.13.13-.27.13-.54.27-.13,0-.4.13-.8.13h-.8v.67Zm-5.5,0h4.02v-.67c-.13,0-.4-.13-.67-.13s-.54-.13-.67-.13c-.27-.13-.54-.27-.8-.54-.13-.13-.54-.4-.8-.8-.67-.94-1.34-1.61-1.74-2.28-.54-.67-1.21-1.34-1.88-2.28.54-.13,1.07-.27,1.47-.54.4-.13.8-.4,1.07-.67.4-.27.67-.67.8-1.07.27-.4.27-.94.27-1.47s-.13-1.07-.4-1.47c-.27-.4-.54-.67-1.07-.94-.4-.27-.94-.54-1.47-.67-.54,0-1.07-.13-1.74-.13h-6.97v.67c.27,0,.54,0,.8.13.27,0,.4.13.67.13.27.13.4.27.4.4.13.13.13.4.13.67v9.92c0,.27,0,.4-.13.54-.13.27-.27.4-.4.4-.13.13-.4.13-.67.13-.4,0-.54,0-.8.13v.67h6.44v-.67c-.27,0-.54-.13-.8-.13-.4,0-.54-.13-.67-.13-.27-.13-.54-.27-.54-.4-.13-.13-.13-.4-.13-.54v-4.42h1.47c.94,1.07,1.74,2.01,2.41,2.95.67.94,1.47,2.01,2.41,3.35m-4.96-7.11h-1.34v-5.9h1.74c1.07,0,1.74.27,2.28.67.54.54.8,1.21.8,2.01,0,1.07-.4,1.74-.94,2.41-.67.54-1.47.8-2.55.8m-8.58,1.61c.27-.13.54-.13.67-.13v-.67h-6.57v.67c.27,0,.54,0,.94.13.4,0,.8.13.94.13.27.13.54.27.54.54.13.13.13.4.13.67v1.47c0,.4,0,.67-.13,1.07-.13.13-.54.27-1.07.54-.54.13-1.07.13-1.61.13-.94,0-1.61-.13-2.28-.4-.67-.27-1.21-.8-1.61-1.34-.54-.54-.8-1.21-1.07-1.88-.13-.8-.27-1.47-.27-2.41s.13-1.74.27-2.55c.27-.67.67-1.34,1.07-1.88s.94-.94,1.47-1.21c.67-.27,1.34-.4,2.01-.4s1.34.13,1.88.4c.4.13.8.54,1.21.8.4.4.67.94.8,1.34.27.54.4,1.07.54,1.47h.94l-.13-4.56h-.8l-.4.67c-.54-.27-1.07-.54-1.74-.67-.54-.13-1.34-.27-2.15-.27-1.07,0-2.15.13-3.08.54-.8.27-1.61.8-2.28,1.47-.67.54-1.21,1.34-1.61,2.15-.4.94-.54,1.88-.54,2.82,0,1.07.13,2.01.54,2.82.4.8.94,1.61,1.61,2.15s1.47,1.07,2.28,1.34c.94.27,1.88.54,2.82.54s1.74-.13,2.68-.4c.94-.13,1.88-.4,2.82-.8v-3.22c0-.13,0-.4.13-.54,0-.13.13-.27.4-.4.13,0,.4-.13.67-.13m-20.78,5.5h6.3v-.67c-.13,0-.4-.13-.67-.13-.27-.13-.4-.13-.67-.27-.13-.13-.4-.27-.54-.4-.13-.13-.27-.4-.4-.67l-4.96-11.66h-.8c-.67,1.61-1.61,3.62-2.41,5.63-.94,2.15-1.74,4.02-2.55,5.76-.13.4-.27.67-.4.8-.13.13-.4.4-.67.54-.13.13-.4.13-.67.27-.27,0-.54,0-.67.13v.67h5.63v-.67c-.54-.13-1.07-.13-1.47-.27-.54-.13-.67-.4-.67-.67v-.4c0-.13.13-.4.13-.67.13-.27.27-.54.4-.94.13-.27.27-.67.4-1.07h5.36l1.21,2.95v.27c0,.13.13.13.13.27s-.27.27-.67.27c-.27.13-.8.13-1.34.27v.67Zm.27-5.63h-4.56l2.28-5.23,2.28,5.23Z"/>
      <path class="cls-4" d="m20.38.94c0-.4-.54-.94-1.07-.94H1.07C.54,0,0,.54,0,.94v18.23c0,.54.54.94,1.07.94h18.23c.54,0,1.07-.4,1.07-.94V.94Z"/>
      <path class="cls-3" d="m19.31,2.28c0-.67-.54-1.21-1.34-1.21h-4.02L1.07,13.81v4.02c0,.67.54,1.34,1.34,1.34h3.89l13-13v-3.89Z"/>
      <path class="cls-7" d="m1.07,13L13.14,1.07H2.41c-.8,0-1.34.54-1.34,1.21v10.73Zm18.23-5.9l-12.2,12.07h10.86c.8,0,1.34-.67,1.34-1.34V7.11Z"/>
      <path class="cls-6" d="m7.64,18.9s.67-.27,1.34-.4c.13,0,1.61-.27,1.47-1.74,0-.4-.54.13-.54.13,0,0-1.07.13-1.61.4-.27.13-.67.67-.67,1.61"/>
      <path class="cls-5" d="m7.51,19.04v-.13c0-.94.54-1.61.8-1.61.4-.4,1.47-.54,1.61-.54,0,0,.27-.27.4-.27s.27,0,.27.27c0,1.34-1.21,1.74-1.61,1.88-.67.13-1.34.4-1.34.4h-.13Zm2.82-2.41s-.27.13-.4.27c0,0-1.07.13-1.61.4-.13.13-.67.67-.67,1.61.27-.13.8-.27,1.21-.4.54-.13,1.61-.54,1.61-1.74q0-.13-.13-.13"/>
      <path class="cls-6" d="m12.33,14.34s.27,1.61-.94,2.15c-.67.27-1.47.54-1.61.67,0,0-.27-1.21.67-1.88.4-.27.94-.4,1.34-.54.4-.13.54-.4.54-.4"/>
      <path class="cls-5" d="m9.79,17.29v-.13s-.4-1.21.67-1.88c.27-.27.8-.4,1.21-.54l.13-.13c.4-.13.54-.27.54-.27h.13s.27,1.61-1.07,2.15c-.27.13-.54.27-.67.27-.4.13-.8.27-.8.4l-.13.13Zm2.55-2.82c-.13.13-.27.27-.54.27l-.13.13c-.4.13-.94.27-1.21.4-.67.67-.67,1.47-.54,1.74.13-.13.4-.27.67-.4.27,0,.54-.13.67-.13,1.07-.4,1.07-1.61,1.07-2.01"/>
      <path class="cls-6" d="m13,12.33s.8.94,0,2.15c-.27.27-1.21.8-1.47,1.21,0,0-.54-1.07.13-2.01.13-.13.67-.67.94-.8.27-.27.4-.54.4-.54"/>
      <path class="cls-5" d="m11.53,15.69h0c-.13-.13-.54-1.07,0-2.01.27-.27.8-.67,1.07-.94.13-.13.4-.4.4-.4v-.13l.13.13s.8.94-.13,2.15c-.13.13-.4.4-.67.67-.27.13-.67.4-.8.54m1.47-3.22c0,.13-.13.27-.4.4-.13.13-.8.67-.94.94-.4.67-.27,1.47-.13,1.74.13-.13.4-.4.67-.54.27-.27.67-.54.67-.67.8-.8.4-1.61.13-1.88"/>
      <path class="cls-6" d="m12.07,10.19s-.8.4-.27,1.74c0,.13.67,1.21.67,1.47,0,0,1.07-.67.67-2.01-.13-.27-.54-1.07-1.07-1.21"/>
      <path class="cls-5" d="m12.47,13.54v-.13c-.13-.27-.4-.8-.54-1.21-.13-.13-.13-.27-.13-.27-.54-1.34.27-1.74.27-1.74v-.13c.54.27,1.07,1.07,1.07,1.34.4,1.34-.67,2.01-.67,2.01v.13Zm-.4-3.35c-.13.13-.67.54-.27,1.61.13.13.13.27.27.4.13.4.4.8.4,1.07.27-.13.94-.8.54-1.88,0-.27-.54-.94-.94-1.21"/>
      <path class="cls-6" d="m10.05,8.45s-.27.8.4,1.61c.27.27,1.47.67,2.01.94,0,0,.54-2.01-2.41-2.55"/>
      <path class="cls-5" d="m12.47,11.13h-.13c-.13-.27-.54-.4-.94-.54-.4-.13-.8-.4-.94-.54-.67-.8-.4-1.61-.4-1.61h.13c.94.13,1.74.54,2.15,1.21.4.67.13,1.34.13,1.34v.13Zm-2.28-2.55c-.13.13-.13.8.27,1.34.13.13.54.4.94.54s.8.27.94.54c.13-.27.13-.8-.13-1.34-.4-.54-1.07-.94-2.01-1.07"/>
      <path class="cls-6" d="m8.45,7.11s2.55.13,2.28,2.41c0,0-.67-.4-1.07-.54-.27-.13-1.21-.4-1.21-1.34v-.54Z"/>
      <path class="cls-5" d="m10.73,9.65l-.13-.13s-.54-.27-.94-.54h-.13c-.27-.13-1.21-.54-1.07-1.34v-.67c.13,0,1.21.13,1.88.94.4.4.54.94.4,1.61v.13Zm-2.15-2.55v.54c-.13.8.67,1.07.94,1.21q.13,0,.13.13c.4.13.8.27.94.4.13-.54,0-1.07-.27-1.47-.54-.54-1.47-.8-1.74-.8"/>
      <path class="cls-6" d="m8.58,4.83s-.94.67-.54,1.88c.13.27.54.94.8,1.07,0,0,.27-.8.54-1.47,0-.27.27-1.21-.4-1.61-.27-.13-.4.13-.4.13"/>
      <path class="cls-5" d="m8.98,7.78h-.13c-.27-.13-.8-.8-.8-.94-.54-1.21.4-2.01.4-2.01,0,0,.13-.13.4-.13h.13c.8.4.4,1.61.4,1.61-.13.67-.4,1.47-.4,1.47m-.13-2.95h-.27v.13s-.94.67-.54,1.74c.13.27.54.8.8.94.13-.13.27-.8.4-1.34,0,0,.4-1.07-.27-1.47h-.13Z"/>
      <path class="cls-6" d="m8.31,5.5s-.67-2.01,1.88-2.68c0,0,.67.8-.4,1.74-.13.27-1.34.8-1.47.94"/>
      <path class="cls-5" d="m8.31,5.76v-.13c0-.13-.4-.94.13-1.74.27-.54.94-.94,1.74-1.07h.13s.54.94-.4,1.74c-.13.13-.4.27-.67.4-.4.27-.8.54-.8.67l-.13.13Zm1.88-2.82c-.8.13-1.34.54-1.61,1.07-.4.54-.27,1.21-.27,1.47.27-.27.54-.4.8-.54.27-.27.54-.4.67-.54.8-.67.54-1.34.4-1.47"/>
      <path class="cls-6" d="m12.47,1.21s-2.82,0-2.68,2.41c0,0,1.74-.54,2.15-1.07.27-.27.54-.8.54-1.34"/>
      <path class="cls-5" d="m9.79,3.62h0c-.13-.67.13-1.21.54-1.61.67-.8,2.01-.8,2.15-.8,0,.67-.13,1.07-.4,1.34-.54.54-2.15,1.07-2.28,1.07m2.55-2.28c-.27,0-1.34,0-2.01.67-.27.4-.4.94-.4,1.47.27-.13,1.61-.54,2.01-.94.27-.27.4-.67.4-1.21"/>
      <text class="cls-1" transform="translate(.33 30.05)"><tspan x="0" y="0">CHI NHÁNH </tspan><tspan class="cls-12" x="42.16" y="0">B</tspan><tspan class="cls-10" x="46.74" y="0">Ắ</tspan><tspan class="cls-8" x="51.66" y="0">C</tspan><tspan class="cls-9" x="56.37" y="0"> </tspan><tspan class="cls-11" x="57.7" y="0">THÀNH PHỐ HỒ CHÍ MINH</tspan></text>
    </g>
  </g>
</svg>